HIERARCHY
ROOT Hips
{
	OFFSET 0.000000 0.000000 0.000000 
	CHANNELS 6 Xposition Yposition Zposition Zrotation Yrotation Xrotation
	JOINT LeftUpLeg
	{
		OFFSET 1.363060 -1.794630 0.839290 
		CHANNELS 3 Zrotation Yrotation Xrotation
		JOINT LeftLeg
		{
			OFFSET 2.448110 -6.726130 0.000000 
			CHANNELS 3 Zrotation Yrotation Xrotation
			JOINT LeftFoot
			{
				OFFSET 2.562200 -7.039590 0.000000 
				CHANNELS 3 Zrotation Yrotation Xrotation
				JOINT LeftToeBase
				{
					OFFSET 0.157640 -0.433110 2.322550 
					CHANNELS 3 Zrotation Yrotation Xrotation
					End Site
					{
						OFFSET 0.000000 0.000000 0.000000 
					}
				}
			}
		}
	}
	JOINT RightUpLeg
	{
		OFFSET -1.305520 -1.794630 0.839290 
		CHANNELS 3 Zrotation Yrotation Xrotation
		JOINT RightLeg
		{
			OFFSET -2.542530 -6.985550 0.000000 
			CHANNELS 3 Zrotation Yrotation Xrotation
			JOINT RightFoot
			{
				OFFSET -2.568260 -7.056230 0.000000 
				CHANNELS 3 Zrotation Yrotation Xrotation
				JOINT RightToeBase
				{
					OFFSET -0.164730 -0.452590 2.363150 
					CHANNELS 3 Zrotation Yrotation Xrotation
					End Site
					{
						OFFSET 0.000000 0.000000 0.000000 
					}
				}
			}
		}
	}
	JOINT Spine
	{
		OFFSET 0.028270 2.035590 -0.193380 
		CHANNELS 3 Zrotation Yrotation Xrotation
		JOINT Spine1
		{
			OFFSET 0.056720 2.048850 -0.042750 
			CHANNELS 3 Zrotation Yrotation Xrotation
			JOINT Neck1
			{
				OFFSET -0.054170 1.746240 0.172020 
				CHANNELS 3 Zrotation Yrotation Xrotation
				JOINT Head
				{
					OFFSET 0.104070 1.761360 -0.123970 
					CHANNELS 3 Zrotation Yrotation Xrotation
					End Site
					{
						OFFSET 0.000000 0.000000 0.000000 
					}
				}
			}
			JOINT LeftArm
			{
				OFFSET 3.362410 1.200890 -0.311210 
				CHANNELS 3 Zrotation Yrotation Xrotation
				JOINT LeftForeArm
				{
					OFFSET 4.983000 -0.000000 -0.000000 
					CHANNELS 3 Zrotation Yrotation Xrotation
					JOINT LeftHand
					{
						OFFSET 3.483560 -0.000000 -0.000000 
						CHANNELS 3 Zrotation Yrotation Xrotation
						JOINT LeftHandIndex1
						{
							OFFSET 0.715260 -0.000000 -0.000000 
							CHANNELS 3 Zrotation Yrotation Xrotation
							End Site
							{
								OFFSET 0.000000 0.000000 0.000000 
							}
						}
					}
				}
			}
			JOINT RightArm
			{
				OFFSET -3.136600 1.374050 -0.404650 
				CHANNELS 3 Zrotation Yrotation Xrotation
				JOINT RightForeArm
				{
					OFFSET -5.241900 -0.000000 -0.000000 
					CHANNELS 3 Zrotation Yrotation Xrotation
					JOINT RightHand
					{
						OFFSET -3.444170 -0.000000 -0.000000 
						CHANNELS 3 Zrotation Yrotation Xrotation
						JOINT RightHandIndex1
						{
							OFFSET -0.622530 -0.000000 -0.000000 
							CHANNELS 3 Zrotation Yrotation Xrotation
							End Site
							{
								OFFSET 0.000000 0.000000 0.000000 
							}
						}
					}
				}
			}
		}
	}
}
MOTION
Frames: 10
Frame Time: 0.041667
-7.469955 17.812637 24.199149 -171.964371 -50.819495 175.467710 -10.385338 -3.645008 -10.849694 2.065022 9.748081 27.797646 0.550391 -16.740807 -11.012893 0.000600 0.164300 0.451300 25.821135 1.481691 -10.024527 -2.061019 -9.755487 27.822082 -0.513664 -4.473734 -17.362521 -0.723900 -5.436700 15.158400 2.507301 3.818723 1.657600 -0.423496 1.809017 -0.659880 -1.466923 9.923836 6.861704 -0.170500 4.853800 3.378900 -85.328993 -1.083228 19.469413 15.777885 -25.481264 -3.749399 -0.038250 0.004906 4.098614 -7.125000 0.000000 0.000000 80.812427 1.567207 0.899855 -12.877114 21.337001 -2.562173 0.156314 0.298912 -8.255931 7.125000 0.000000 0.000000 
-7.469250 17.798936 24.176179 -171.978028 -50.733021 175.424426 -10.667077 -3.906639 -10.610482 2.066706 9.753197 27.817177 0.679350 -15.149625 -11.776132 0.000000 -0.022900 -0.062900 25.818962 0.679433 -10.273529 -2.080407 -9.788523 27.925455 -0.556863 -3.714315 -17.111030 -0.681200 -5.277200 14.700900 2.487532 3.866671 1.633813 -0.427326 1.833616 -0.670171 -1.317173 9.866629 6.978849 -0.117000 4.829800 3.410800 -85.452726 -0.971994 18.641241 15.266578 -24.791245 -3.529214 -0.036733 0.008834 4.605696 -7.125000 0.000000 0.000000 80.841706 1.566690 0.584375 -12.916467 21.392005 -2.576160 0.163094 0.294863 -8.439917 7.125000 0.000000 0.000000 
-7.467437 17.795309 24.153309 -171.195041 -50.476683 174.707288 -10.294739 -4.201026 -10.290201 2.080414 9.774022 27.888564 0.838980 -12.963053 -12.927047 0.025300 -1.027100 -2.823500 26.591985 1.600337 -9.606975 -2.040133 -9.713889 27.691240 -0.516186 -4.501011 -17.405759 -0.702400 -5.356800 14.929200 2.675691 3.965416 1.634383 -0.392152 1.876900 -0.672012 -1.192328 9.759222 7.052941 -0.064700 4.778500 3.401300 -85.759592 -0.896174 17.598139 14.758991 -24.094894 -3.316065 -0.034332 0.013110 5.142942 -7.125000 0.000000 0.000000 80.668451 1.546383 0.677339 -13.010355 21.529099 -2.611422 0.168631 0.295259 -8.930879 7.125000 0.000000 0.000000 
-7.467437 17.799036 24.131951 -170.607526 -50.140323 174.148875 -10.007700 -4.972757 -9.623421 2.068133 9.752624 27.827115 0.939760 -10.775061 -13.855746 0.068200 -1.685400 -4.637100 27.163929 2.029006 -9.227336 -2.030447 -9.695194 27.631744 -0.504479 -4.762357 -17.524862 -0.731700 -5.465100 15.239900 2.838464 4.096339 1.646157 -0.321002 1.936582 -0.662905 -1.202409 9.621663 6.891837 -0.092600 4.714600 3.278200 -85.883237 -0.531231 17.572347 14.509508 -23.753706 -3.212646 -0.037759 0.012471 4.706163 -7.125000 0.000000 0.000000 80.516064 1.489468 0.524565 -13.071583 21.620322 -2.635670 0.155041 0.297868 -8.413326 7.125000 0.000000 0.000000 
-7.474791 17.805383 24.121574 -171.387102 -50.085466 174.936859 -10.745563 -6.110880 -9.120494 2.041627 9.717283 27.717082 0.981216 -9.141040 -14.470884 0.070400 -1.711900 -4.710100 26.574339 1.833882 -9.421554 -2.010883 -9.661935 27.523921 -0.505478 -4.513600 -17.300959 -0.767500 -5.594100 15.611300 2.752882 4.036684 1.604144 -0.131907 1.913300 -0.587170 -1.416757 9.589639 6.700798 -0.219800 4.700300 3.165300 -85.925193 0.073951 17.997079 14.499063 -23.748538 -3.208374 -0.042383 0.006140 3.816839 -7.125000 0.000000 0.000000 80.401399 1.519775 0.347475 -13.042887 21.580624 -2.625806 0.136940 0.296619 -7.721462 7.125000 0.000000 0.000000 
-7.480433 17.807398 24.110693 -171.802425 -50.061764 175.432652 -11.122738 -6.771615 -8.856617 2.008407 9.663580 27.548632 0.989551 -8.175394 -14.747140 0.095600 -1.994500 -5.490300 26.277799 1.801523 -9.566005 -2.000276 -9.644020 27.466579 -0.509452 -4.395248 -17.233727 -0.783700 -5.651600 15.776800 2.764977 3.914068 1.572338 0.091838 1.855075 -0.486811 -1.501345 9.675850 6.701437 -0.242200 4.738800 3.153100 -86.177985 0.391538 17.633638 14.291196 -23.462011 -3.123278 -0.045655 0.002777 3.497638 -7.125000 0.000000 0.000000 80.181712 1.567999 1.030503 -13.196938 21.807044 -2.686127 0.126037 0.309477 -8.390783 7.125000 0.000000 0.000000 
-7.479426 17.807398 24.095480 -171.636455 -49.919566 175.275256 -10.957369 -6.868416 -8.613101 1.970188 9.593050 27.327649 0.978767 -7.716324 -14.735558 0.131600 -2.338300 -6.441500 26.491061 2.085198 -9.377078 -1.999534 -9.643086 27.463522 -0.517825 -4.447579 -17.373302 -0.785000 -5.656100 15.789900 2.798646 3.949930 1.540510 0.100699 1.871314 -0.523522 -1.546169 9.667252 6.833773 -0.272200 4.733000 3.219200 -86.278940 0.455497 16.808647 13.833205 -22.818444 -2.940185 -0.045008 0.003594 4.109130 -7.125000 0.000000 0.000000 80.132613 1.560558 1.326578 -13.415054 22.121565 -2.771493 0.120142 0.322526 -8.443849 7.125000 0.000000 0.000000 
-7.477411 17.815055 24.074625 -171.866365 -49.739200 175.435425 -11.000795 -6.603080 -8.544532 1.942047 9.540895 27.161718 0.961285 -7.926532 -14.506789 0.106500 -2.104500 -5.794600 26.446886 2.513222 -9.116001 -1.992897 -9.632358 27.429168 -0.517508 -4.605821 -17.523204 -0.798900 -5.704800 15.930200 2.716628 4.060820 1.531224 0.115626 1.929504 -0.499921 -1.579920 9.581344 7.218314 -0.317800 4.688600 3.444600 -86.193359 0.444792 15.894270 13.334934 -22.112653 -2.748201 -0.037535 0.005975 5.085410 -7.125000 0.000000 0.000000 80.291788 1.621491 1.017379 -13.471629 22.197597 -2.792689 0.118847 0.322013 -7.994645 7.125000 0.000000 0.000000 
-7.475194 17.823619 24.046214 -172.115474 -49.619001 175.646424 -11.014772 -5.997455 -8.682752 1.915009 9.488751 26.994874 0.942328 -8.490939 -14.189082 0.093300 -1.970000 -5.422700 26.405704 2.862163 -8.917399 -1.992238 -9.632217 27.428649 -0.507195 -4.882831 -17.683769 -0.781600 -5.644200 15.755600 2.648201 4.133254 1.556249 0.222437 1.969903 -0.359488 -1.395095 9.524328 7.458137 -0.244300 4.663400 3.578900 -86.116048 0.400146 14.915271 12.891065 -21.477262 -2.582645 -0.028928 0.008798 6.008961 -7.125000 0.000000 0.000000 80.534204 1.620033 0.953928 -13.496757 22.229244 -2.800091 0.123931 0.312399 -8.337946 7.125000 0.000000 0.000000 
-7.470761 17.822410 24.023344 -172.443265 -49.548430 175.817257 -11.108053 -5.397525 -8.723151 1.882179 9.425692 26.794025 0.916666 -9.020877 -13.831079 0.077800 -1.799600 -4.952100 26.275366 3.026084 -8.769139 -2.011158 -9.668500 27.542633 -0.515398 -4.959961 -17.848881 -0.795400 -5.692700 15.895300 2.595338 4.160773 1.588506 0.347841 1.984198 -0.319948 -1.209384 9.487362 7.329094 -0.161800 4.651500 3.495400 -86.185569 0.351641 13.676331 12.519715 -20.936893 -2.446922 -0.023755 0.009343 6.965883 -7.125000 0.000000 0.000000 80.712349 1.574932 1.112087 -13.699947 22.517115 -2.878645 0.127679 0.312551 -8.824700 7.125000 0.000000 0.000000 
